<?xml version="1.0" encoding="iso-8859-1"?>
<!-- Generator: Adobe Illustrator 23.0.5, SVG Export Plug-In . SVG Version: 6.00 Build 0)  -->
<svg version="1.1" xmlns="http://www.w3.org/2000/svg" xmlns:xlink="http://www.w3.org/1999/xlink" x="0px" y="0px"
	 viewBox="0 0 492 492" style="enable-background:new 0 0 492 492;" xml:space="preserve">
<g id="Master_Layer_2">
</g>
<g id="Layer_1">
	<g>
		<g>
			<g>
				<g>
					<g>
						<g>
							<path style="fill-rule:evenodd;clip-rule:evenodd;fill:#212121;" d="M125.525,201.771c-12.456,0-22.584-10.128-22.584-22.584
								c0-12.456,10.128-22.584,22.584-22.584s22.584,10.128,22.584,22.584C148.108,191.643,137.981,201.771,125.525,201.771
								L125.525,201.771z M125.525,168.123c-6.096,0-11.064,4.968-11.064,11.064c0,6.096,4.968,11.064,11.064,11.064
								s11.064-4.968,11.064-11.064C136.589,173.091,131.62,168.123,125.525,168.123z"/>
						</g>
					</g>
					<g>
						<g>
							<path style="fill-rule:evenodd;clip-rule:evenodd;fill:#212121;" d="M141.772,336.338h-31.728c-3.192,0-5.76-2.568-5.76-5.76
								c0-3.192,2.568-5.76,5.76-5.76h31.728c3.192,0,5.76,2.568,5.76,5.76C147.533,333.77,144.94,336.338,141.772,336.338z"/>
						</g>
					</g>
					<g>
						<g>
							<path style="fill-rule:evenodd;clip-rule:evenodd;fill:#212121;" d="M141.772,336.338c-0.12,0-0.24,0-0.336,0
								c-3.168-0.192-5.592-2.904-5.4-6.096l3.096-52.656l1.92-39.624c0.096-1.92,1.152-3.672,2.808-4.656
								c1.656-0.984,3.696-1.08,5.448-0.264l30.744,14.688c0.096,0.048,0.192,0.024,0.24-0.048l0.504-0.504
								c0.144-0.144,0.192-0.312,0.168-0.504c-0.024-0.192-0.12-0.336-0.264-0.456l-40.584-27.96
								c-0.768-0.528-1.656-0.792-2.568-0.792h-25.512c-0.96,0-1.872,0.288-2.64,0.864l-35.208,25.44
								c-0.552,0.384-0.672,0.936-0.72,1.2c-0.048,0.288-0.024,0.84,0.384,1.344l28.752-13.296c1.728-0.792,3.768-0.696,5.4,0.312
								c1.632,0.984,2.688,2.736,2.76,4.656l1.92,39.624l3.096,52.656c0.192,3.168-2.232,5.904-5.4,6.096s-5.904-2.232-6.096-5.4
								l-3.096-52.68c0-0.024,0-0.048,0-0.072l-1.488-31.128l-20.976,9.696c-4.752,2.184-10.392,0.912-13.728-3.096
								c-2.328-2.808-3.408-6.528-2.952-10.152c0.456-3.624,2.424-6.96,5.4-9.096l35.208-25.44c2.76-1.992,6-3.048,9.408-3.048
								l25.512,0c3.264,0,6.432,0.984,9.12,2.832l40.512,27.96c2.928,2.016,4.824,5.232,5.184,8.784
								c0.36,3.552-0.864,7.056-3.336,9.624l-0.48,0.504c-3.504,3.648-8.952,4.632-13.512,2.448l-22.92-10.944l-1.488,31.008
								c0,0.024,0,0.048,0,0.072l-3.096,52.68C147.341,333.986,144.796,336.338,141.772,336.338z"/>
						</g>
					</g>
					<g>
						<g>
							<path style="fill-rule:evenodd;clip-rule:evenodd;fill:#212121;" d="M125.909,336.338c-3.192,0-5.76-2.568-5.76-5.76v-40.752
								c0-3.192,2.568-5.76,5.76-5.76s5.76,2.568,5.76,5.76v40.752C131.669,333.77,129.077,336.338,125.909,336.338z"/>
						</g>
					</g>
				</g>
				<g>
					<g>
						<g>
							<path style="fill-rule:evenodd;clip-rule:evenodd;fill:#212121;" d="M244.54,202.275c-12.456,0-22.584-10.128-22.584-22.584
								c0-12.456,10.128-22.584,22.584-22.584s22.584,10.128,22.584,22.584C267.124,192.147,256.996,202.275,244.54,202.275
								L244.54,202.275z M244.54,168.627c-6.096,0-11.064,4.968-11.064,11.064s4.968,11.064,11.064,11.064
								s11.064-4.968,11.064-11.064S250.636,168.627,244.54,168.627z"/>
						</g>
					</g>
					<g>
						<g>
							<path style="fill-rule:evenodd;clip-rule:evenodd;fill:#212121;" d="M260.764,336.842h-31.728c-3.192,0-5.76-2.568-5.76-5.76
								c0-3.192,2.568-5.76,5.76-5.76h31.728c3.192,0,5.76,2.568,5.76,5.76C266.524,334.274,263.956,336.842,260.764,336.842z"/>
						</g>
					</g>
					<g>
						<g>
							<path style="fill-rule:evenodd;clip-rule:evenodd;fill:#212121;" d="M260.788,336.842c-0.12,0-0.24,0-0.336,0
								c-3.168-0.192-5.592-2.904-5.4-6.096l3.096-52.656l1.92-39.624c0.096-1.92,1.152-3.672,2.808-4.656s3.696-1.08,5.448-0.264
								l30.744,14.688c0.096,0.048,0.192,0.024,0.24-0.048l0.48-0.504c0.144-0.144,0.192-0.312,0.168-0.504
								c-0.024-0.192-0.12-0.336-0.264-0.456l-40.536-27.984c-0.768-0.528-1.656-0.792-2.568-0.792h-25.56
								c-0.96,0-1.872,0.288-2.64,0.864l-35.208,25.44c-0.552,0.384-0.672,0.936-0.72,1.2c-0.048,0.264-0.024,0.84,0.384,1.344
								l28.752-13.272c1.728-0.816,3.768-0.696,5.4,0.312c1.632,0.984,2.688,2.736,2.76,4.656l1.92,39.624l3.096,52.656
								c0.192,3.168-2.232,5.904-5.4,6.096s-5.904-2.232-6.096-5.4l-3.12-52.68c0-0.024,0-0.048,0-0.072l-1.488-31.128
								l-20.976,9.696c-4.752,2.184-10.392,0.912-13.728-3.096c-2.328-2.832-3.408-6.528-2.952-10.152s2.424-6.96,5.4-9.096
								l35.208-25.44c2.76-1.992,6-3.048,9.408-3.048l25.536,0c3.264,0,6.432,0.984,9.12,2.832l40.536,27.984
								c2.928,2.016,4.824,5.232,5.184,8.784c0.36,3.552-0.864,7.056-3.336,9.624l-0.48,0.504
								c-3.504,3.648-8.952,4.632-13.512,2.448l-22.92-10.944l-1.488,31.008c0,0.024,0,0.048,0,0.072l-3.12,52.68
								C266.332,334.49,263.812,336.842,260.788,336.842z"/>
						</g>
					</g>
					<g>
						<g>
							<path style="fill-rule:evenodd;clip-rule:evenodd;fill:#212121;" d="M244.9,336.842c-3.192,0-5.76-2.568-5.76-5.76V290.33
								c0-3.192,2.568-5.76,5.76-5.76c3.192,0,5.76,2.568,5.76,5.76v40.752C250.66,334.274,248.092,336.842,244.9,336.842z"/>
						</g>
					</g>
				</g>
				<g>
					<g>
						<g>
							<path style="fill-rule:evenodd;clip-rule:evenodd;fill:#212121;" d="M363.652,202.275c-12.456,0-22.584-10.128-22.584-22.584
								c0-12.456,10.128-22.584,22.584-22.584s22.584,10.128,22.584,22.584C386.236,192.147,376.084,202.275,363.652,202.275
								L363.652,202.275z M363.652,168.627c-6.096,0-11.064,4.968-11.064,11.064s4.968,11.064,11.064,11.064
								c6.096,0,11.064-4.968,11.064-11.064S369.748,168.627,363.652,168.627z"/>
						</g>
					</g>
					<g>
						<g>
							<path style="fill-rule:evenodd;clip-rule:evenodd;fill:#212121;" d="M379.876,336.842h-31.728c-3.192,0-5.76-2.568-5.76-5.76
								c0-3.192,2.568-5.76,5.76-5.76h31.728c3.192,0,5.76,2.568,5.76,5.76C385.636,334.274,383.068,336.842,379.876,336.842z"/>
						</g>
					</g>
					<g>
						<g>
							<path style="fill-rule:evenodd;clip-rule:evenodd;fill:#212121;" d="M379.876,336.842c-0.12,0-0.24,0-0.336,0
								c-3.168-0.192-5.592-2.904-5.4-6.096l3.096-52.656l1.92-39.624c0.096-1.92,1.152-3.672,2.808-4.656s3.696-1.08,5.448-0.264
								l30.744,14.688c0.096,0.048,0.192,0.024,0.24-0.048l0.504-0.504c0.144-0.144,0.192-0.312,0.168-0.504
								c-0.024-0.192-0.12-0.336-0.264-0.456l-40.56-27.96c-0.768-0.528-1.656-0.792-2.568-0.792h-25.512
								c-0.96,0-1.872,0.288-2.64,0.864l-35.208,25.44c-0.552,0.384-0.672,0.936-0.72,1.2c-0.048,0.264-0.024,0.84,0.384,1.344
								l28.752-13.296c1.728-0.816,3.768-0.696,5.4,0.312c1.632,0.984,2.688,2.736,2.76,4.656l1.92,39.624l3.096,52.656
								c0.192,3.168-2.232,5.904-5.4,6.096s-5.904-2.232-6.096-5.4l-3.12-52.68c0-0.024,0-0.048,0-0.072l-1.488-31.128
								l-20.976,9.696c-4.752,2.184-10.392,0.912-13.728-3.096c-2.328-2.832-3.408-6.528-2.952-10.152
								c0.456-3.624,2.424-6.96,5.4-9.096l35.208-25.44c2.76-1.992,6-3.048,9.408-3.048l25.512,0c3.264,0,6.432,0.984,9.12,2.832
								l40.536,27.984c2.928,2.016,4.824,5.232,5.184,8.784c0.36,3.552-0.864,7.056-3.336,9.648l-0.504,0.504
								c-3.504,3.648-8.952,4.632-13.512,2.448l-22.92-10.967l-1.488,31.008c0,0.024,0,0.048,0,0.072l-3.12,52.68
								C385.444,334.49,382.924,336.842,379.876,336.842z"/>
						</g>
					</g>
					<g>
						<g>
							<path style="fill-rule:evenodd;clip-rule:evenodd;fill:#212121;" d="M364.012,336.842c-3.192,0-5.76-2.568-5.76-5.76V290.33
								c0-3.192,2.568-5.76,5.76-5.76c3.192,0,5.76,2.568,5.76,5.76v40.752C369.772,334.274,367.204,336.842,364.012,336.842z"/>
						</g>
					</g>
				</g>
			</g>
		</g>
	</g>
</g>
</svg>
