<?xml version="1.0" encoding="utf-8"?>
<!-- Generator: Adobe Illustrator 16.0.0, SVG Export Plug-In . SVG Version: 6.00 Build 0)  -->
<!DOCTYPE svg PUBLIC "-//W3C//DTD SVG 1.1//EN" "http://www.w3.org/Graphics/SVG/1.1/DTD/svg11.dtd">
<svg version="1.1" id="Layer_1" xmlns="http://www.w3.org/2000/svg" xmlns:xlink="http://www.w3.org/1999/xlink" x="0px" y="0px"
	 width="128px" height="128px" viewBox="0 0 128 128" enable-background="new 0 0 128 128" xml:space="preserve">
<g>
	<g>
		<path fill="#282D33" d="M68.357,55.421c-6.006,0-11.129-4.509-11.917-10.486c-0.869-6.594,3.775-12.666,10.352-13.536
			c0.526-0.069,1.061-0.104,1.588-0.104c6.006,0,11.128,4.507,11.914,10.484c0.871,6.592-3.771,12.665-10.348,13.537
			C69.42,55.385,68.885,55.421,68.357,55.421z M68.38,35.294c-0.353,0-0.71,0.023-1.063,0.07c-4.392,0.581-7.493,4.64-6.912,9.047
			c0.527,3.996,3.945,7.01,7.952,7.01c0.353,0,0.711-0.024,1.063-0.071c4.391-0.582,7.489-4.642,6.907-9.049
			C75.803,38.306,72.386,35.294,68.38,35.294z"/>
	</g>
	<g>
		<path fill="#282D33" d="M75.958,87.737l-20.845-2.35l2.879-25.675c0.37-3.308,3.337-5.749,6.715-5.367l8.77,0.988
			c3.327,0.375,5.73,3.393,5.358,6.727L75.958,87.737z M59.534,81.86l12.895,1.453l2.432-21.697
			c0.127-1.144-0.694-2.179-1.832-2.308l-8.771-0.988c-1.155-0.127-2.164,0.704-2.291,1.838L59.534,81.86z"/>
	</g>
	<g>
		<rect x="66.035" y="92.898" fill="#282D33" width="15.523" height="4"/>
	</g>
	<g>
		<rect x="57.275" y="102.857" fill="#282D33" width="15.522" height="4"/>
	</g>
	<g>
		<rect x="26.833" y="123.363" fill="#282D33" width="44.797" height="4"/>
	</g>
	<g>
		<rect x="8.296" y="75.955" fill="#282D33" width="4" height="18.441"/>
	</g>
	<g>
		<rect x="55.504" y="92.898" fill="#282D33" width="6.098" height="4"/>
	</g>
	<g>
		<path fill="#282D33" d="M96.143,43.696c-6.634,0-12.031-5.412-12.031-12.063c0-6.652,5.397-12.064,12.031-12.064
			c6.635,0,12.032,5.412,12.032,12.064C108.175,38.284,102.777,43.696,96.143,43.696z M96.143,23.568
			c-4.429,0-8.031,3.618-8.031,8.064s3.603,8.063,8.031,8.063s8.032-3.617,8.032-8.063S100.571,23.568,96.143,23.568z"/>
	</g>
	<g>
		<path fill="#282D33" d="M38.027,56.007c-6.797,0-12.328-5.545-12.328-12.361c0-6.813,5.53-12.357,12.328-12.357
			c3.294,0,6.39,1.286,8.719,3.621c2.327,2.334,3.608,5.437,3.608,8.736C50.354,50.462,44.824,56.007,38.027,56.007z M38.029,35.288
			c-4.593,0-8.33,3.749-8.33,8.357c0,4.61,3.736,8.361,8.328,8.361s8.327-3.751,8.327-8.361
			C46.354,39.037,42.619,35.288,38.029,35.288z"/>
	</g>
	<g>
		<path fill="#282D33" d="M9.699,69.48C4.351,69.48,0,65.118,0,59.756s4.351-9.725,9.699-9.725c5.348,0,9.699,4.362,9.699,9.725
			S15.047,69.48,9.699,69.48z M9.699,54.031C6.557,54.031,4,56.599,4,59.756c0,3.156,2.557,5.725,5.699,5.725
			c3.142,0,5.699-2.568,5.699-5.725C15.398,56.599,12.841,54.031,9.699,54.031z"/>
	</g>
	<g>
		<g>
			<polygon fill="#282D33" points="80.336,122.514 70.396,113.56 85.208,98.673 86.364,89.27 90.335,89.758 89.011,100.522 
				76.196,113.401 80.166,116.977 94.125,102.752 95.296,93.209 99.267,93.695 97.93,104.586 			"/>
		</g>
	</g>
	<g>
		<g>
			<path fill="#282D33" d="M111.017,121.873L87.012,79.038v-36.71l11.887-2.769l10.557,19.149H128v13.372h-26.603l-1.042-1.522
				v5.015l22.338,39.823L111.017,121.873z M91.012,77.993l21.548,38.45l4.679-2.596L96.355,76.618V57.633l7.151,10.448H124v-5.372
				h-16.908L96.857,44.142l-5.846,1.362V77.993z"/>
		</g>
	</g>
	<g>
		<rect x="121.08" y="0.637" fill="#282D33" width="4" height="52.329"/>
	</g>
	<g>
		<polygon fill="#282D33" points="122.078,26.853 100.674,14.459 122.078,2.063 124.082,5.524 108.656,14.458 124.082,23.392 		"/>
	</g>
	<g>
		<polygon fill="#282D33" points="45.461,116.863 31.674,116.863 31.674,85.432 35.674,85.432 35.674,112.863 41.461,112.863 
			41.461,85.432 45.461,85.432 		"/>
	</g>
	<g>
		<path fill="#282D33" d="M48.957,88.115H27.48V61.574c0-3.424,2.778-6.208,6.194-6.208h9.089c3.416,0,6.194,2.784,6.194,6.208
			V88.115z M31.48,84.115h13.477V61.574c0-1.218-0.984-2.208-2.194-2.208h-9.089c-1.209,0-2.194,0.99-2.194,2.208V84.115z"/>
	</g>
</g>
</svg>
